<mxfile host="app.diagrams.net" modified="2022-11-17T14:12:26.364Z" agent="5.0 (Macintosh; Intel Mac OS X 10_15_7) AppleWebKit/537.36 (KHTML, like Gecko) Chrome/107.0.0.0 Safari/537.36" etag="bNHLzd-d-ICbCeYUNMgc" version="20.5.3" type="github" pages="2">
  <diagram id="iTJbgFQ7iRhdTtJBEvMc" name="Page-1">
    <mxGraphModel dx="1118" dy="517" grid="1" gridSize="10" guides="1" tooltips="1" connect="1" arrows="1" fold="1" page="1" pageScale="1" pageWidth="850" pageHeight="1100" math="0" shadow="0">
      <root>
        <mxCell id="0" />
        <mxCell id="1" parent="0" />
        <mxCell id="a4VoA2BKmQmaN0k5V_dn-1" value="" style="whiteSpace=wrap;html=1;aspect=fixed;" vertex="1" parent="1">
          <mxGeometry x="490" y="90" width="40" height="40" as="geometry" />
        </mxCell>
        <mxCell id="a4VoA2BKmQmaN0k5V_dn-2" value="Search Service" style="text;html=1;strokeColor=none;fillColor=none;align=center;verticalAlign=middle;whiteSpace=wrap;rounded=0;" vertex="1" parent="1">
          <mxGeometry x="480" y="60" width="60" height="30" as="geometry" />
        </mxCell>
        <mxCell id="a4VoA2BKmQmaN0k5V_dn-8" style="edgeStyle=orthogonalEdgeStyle;rounded=0;orthogonalLoop=1;jettySize=auto;html=1;entryX=0;entryY=0;entryDx=0;entryDy=37.5;entryPerimeter=0;" edge="1" parent="1" target="a4VoA2BKmQmaN0k5V_dn-9">
          <mxGeometry relative="1" as="geometry">
            <mxPoint x="530" y="110.0666666666666" as="sourcePoint" />
            <mxPoint x="570" y="110" as="targetPoint" />
          </mxGeometry>
        </mxCell>
        <mxCell id="a4VoA2BKmQmaN0k5V_dn-9" value="" style="shape=cylinder3;whiteSpace=wrap;html=1;boundedLbl=1;backgroundOutline=1;size=15;" vertex="1" parent="1">
          <mxGeometry x="590" y="80" width="40" height="50" as="geometry" />
        </mxCell>
        <mxCell id="a4VoA2BKmQmaN0k5V_dn-23" style="edgeStyle=orthogonalEdgeStyle;rounded=0;orthogonalLoop=1;jettySize=auto;html=1;entryX=0;entryY=0.5;entryDx=0;entryDy=0;entryPerimeter=0;" edge="1" parent="1" source="a4VoA2BKmQmaN0k5V_dn-11" target="a4VoA2BKmQmaN0k5V_dn-22">
          <mxGeometry relative="1" as="geometry" />
        </mxCell>
        <mxCell id="a4VoA2BKmQmaN0k5V_dn-33" style="edgeStyle=orthogonalEdgeStyle;rounded=0;orthogonalLoop=1;jettySize=auto;html=1;" edge="1" parent="1" source="a4VoA2BKmQmaN0k5V_dn-11" target="a4VoA2BKmQmaN0k5V_dn-15">
          <mxGeometry relative="1" as="geometry" />
        </mxCell>
        <mxCell id="a4VoA2BKmQmaN0k5V_dn-11" value="Cart" style="whiteSpace=wrap;html=1;aspect=fixed;" vertex="1" parent="1">
          <mxGeometry x="400" y="160" width="40" height="40" as="geometry" />
        </mxCell>
        <mxCell id="a4VoA2BKmQmaN0k5V_dn-27" style="edgeStyle=orthogonalEdgeStyle;rounded=0;orthogonalLoop=1;jettySize=auto;html=1;" edge="1" parent="1" source="a4VoA2BKmQmaN0k5V_dn-13" target="a4VoA2BKmQmaN0k5V_dn-26">
          <mxGeometry relative="1" as="geometry" />
        </mxCell>
        <mxCell id="a4VoA2BKmQmaN0k5V_dn-13" value="Check&lt;br&gt;out" style="whiteSpace=wrap;html=1;aspect=fixed;" vertex="1" parent="1">
          <mxGeometry x="490" y="310" width="40" height="40" as="geometry" />
        </mxCell>
        <mxCell id="a4VoA2BKmQmaN0k5V_dn-34" style="edgeStyle=orthogonalEdgeStyle;rounded=0;orthogonalLoop=1;jettySize=auto;html=1;entryX=0;entryY=0.5;entryDx=0;entryDy=0;" edge="1" parent="1" source="a4VoA2BKmQmaN0k5V_dn-15" target="a4VoA2BKmQmaN0k5V_dn-13">
          <mxGeometry relative="1" as="geometry" />
        </mxCell>
        <mxCell id="a4VoA2BKmQmaN0k5V_dn-36" style="edgeStyle=orthogonalEdgeStyle;rounded=0;orthogonalLoop=1;jettySize=auto;html=1;entryX=0.25;entryY=0;entryDx=0;entryDy=0;" edge="1" parent="1" source="a4VoA2BKmQmaN0k5V_dn-15" target="a4VoA2BKmQmaN0k5V_dn-35">
          <mxGeometry relative="1" as="geometry" />
        </mxCell>
        <mxCell id="a4VoA2BKmQmaN0k5V_dn-15" value="Ordering&lt;br&gt;" style="whiteSpace=wrap;html=1;aspect=fixed;" vertex="1" parent="1">
          <mxGeometry x="405" y="245" width="40" height="40" as="geometry" />
        </mxCell>
        <mxCell id="a4VoA2BKmQmaN0k5V_dn-17" value="Actor" style="shape=umlActor;verticalLabelPosition=bottom;verticalAlign=top;html=1;outlineConnect=0;" vertex="1" parent="1">
          <mxGeometry x="120" y="90" width="30" height="60" as="geometry" />
        </mxCell>
        <mxCell id="a4VoA2BKmQmaN0k5V_dn-25" value="" style="edgeStyle=orthogonalEdgeStyle;rounded=0;orthogonalLoop=1;jettySize=auto;html=1;" edge="1" parent="1" source="a4VoA2BKmQmaN0k5V_dn-22" target="a4VoA2BKmQmaN0k5V_dn-24">
          <mxGeometry relative="1" as="geometry" />
        </mxCell>
        <mxCell id="a4VoA2BKmQmaN0k5V_dn-22" value="Cache" style="shape=cylinder3;whiteSpace=wrap;html=1;boundedLbl=1;backgroundOutline=1;size=15;" vertex="1" parent="1">
          <mxGeometry x="600" y="195" width="50" height="50" as="geometry" />
        </mxCell>
        <mxCell id="a4VoA2BKmQmaN0k5V_dn-24" value="Storage" style="shape=cylinder3;whiteSpace=wrap;html=1;boundedLbl=1;backgroundOutline=1;size=15;" vertex="1" parent="1">
          <mxGeometry x="730" y="195" width="50" height="50" as="geometry" />
        </mxCell>
        <mxCell id="a4VoA2BKmQmaN0k5V_dn-26" value="Payment" style="whiteSpace=wrap;html=1;aspect=fixed;" vertex="1" parent="1">
          <mxGeometry x="600" y="310" width="40" height="40" as="geometry" />
        </mxCell>
        <mxCell id="a4VoA2BKmQmaN0k5V_dn-30" style="edgeStyle=orthogonalEdgeStyle;rounded=0;orthogonalLoop=1;jettySize=auto;html=1;entryX=0;entryY=0.5;entryDx=0;entryDy=0;" edge="1" parent="1" source="a4VoA2BKmQmaN0k5V_dn-28" target="a4VoA2BKmQmaN0k5V_dn-1">
          <mxGeometry relative="1" as="geometry" />
        </mxCell>
        <mxCell id="a4VoA2BKmQmaN0k5V_dn-32" style="edgeStyle=orthogonalEdgeStyle;rounded=0;orthogonalLoop=1;jettySize=auto;html=1;entryX=0;entryY=0.5;entryDx=0;entryDy=0;exitX=0.5;exitY=1;exitDx=0;exitDy=0;" edge="1" parent="1" source="a4VoA2BKmQmaN0k5V_dn-28" target="a4VoA2BKmQmaN0k5V_dn-11">
          <mxGeometry relative="1" as="geometry" />
        </mxCell>
        <mxCell id="a4VoA2BKmQmaN0k5V_dn-28" value="WayNew&lt;br&gt;FE" style="whiteSpace=wrap;html=1;aspect=fixed;" vertex="1" parent="1">
          <mxGeometry x="200" y="100" width="40" height="40" as="geometry" />
        </mxCell>
        <mxCell id="a4VoA2BKmQmaN0k5V_dn-29" value="" style="edgeStyle=orthogonalEdgeStyle;rounded=0;orthogonalLoop=1;jettySize=auto;html=1;entryX=0;entryY=0.75;entryDx=0;entryDy=0;endArrow=none;" edge="1" parent="1" source="a4VoA2BKmQmaN0k5V_dn-17" target="a4VoA2BKmQmaN0k5V_dn-28">
          <mxGeometry relative="1" as="geometry">
            <mxPoint x="150" y="120" as="sourcePoint" />
            <mxPoint x="320" y="120" as="targetPoint" />
          </mxGeometry>
        </mxCell>
        <mxCell id="a4VoA2BKmQmaN0k5V_dn-35" value="Fulfilment" style="whiteSpace=wrap;html=1;aspect=fixed;" vertex="1" parent="1">
          <mxGeometry x="405" y="370" width="40" height="40" as="geometry" />
        </mxCell>
      </root>
    </mxGraphModel>
  </diagram>
  <diagram id="gktQYinlbJuvnyyQjqPH" name="Page-2">
    <mxGraphModel dx="1165" dy="538" grid="1" gridSize="10" guides="1" tooltips="1" connect="1" arrows="1" fold="1" page="1" pageScale="1" pageWidth="850" pageHeight="1100" math="0" shadow="0">
      <root>
        <mxCell id="0" />
        <mxCell id="1" parent="0" />
        <mxCell id="QU8bWg5eS6Y1XLZIbmgW-1" value="GET /waynew/products/&lt;br&gt;Request: &lt;br&gt;{&lt;br&gt;&lt;span style=&quot;&quot;&gt;	&lt;/span&gt;userid: u123&lt;br&gt;&lt;span style=&quot;&quot;&gt;	&lt;/span&gt;searchString: &quot;All Electronic products&quot;&lt;br&gt;&lt;br&gt;}&lt;br&gt;Response:&lt;br&gt;{&lt;br&gt;&lt;span style=&quot;&quot;&gt;	&lt;/span&gt;userid: u123&lt;br&gt;&lt;span style=&quot;&quot;&gt;	&lt;/span&gt;Products:&amp;nbsp;&lt;br&gt;&lt;span style=&quot;&quot;&gt;	&lt;/span&gt;&lt;span style=&quot;&quot;&gt;	&lt;/span&gt;[&amp;nbsp; {pid: 111, name: P1, price: 123, status: available},&lt;br&gt;&amp;nbsp; {pid:112, name: P2, price: 124, status: NA}&lt;br&gt;]&lt;br&gt;pagenumber: 1&lt;br&gt;pagesize:10&lt;br&gt;Totalproducts: 100&lt;br&gt;&lt;br&gt;}" style="shape=note;whiteSpace=wrap;html=1;backgroundOutline=1;fontColor=#000000;darkOpacity=0.05;fillColor=#FFF9B2;strokeColor=none;fillStyle=solid;direction=west;gradientDirection=north;gradientColor=#FFF2A1;shadow=1;size=20;pointerEvents=1;align=left;" vertex="1" parent="1">
          <mxGeometry x="40" y="50" width="290" height="320" as="geometry" />
        </mxCell>
        <mxCell id="QU8bWg5eS6Y1XLZIbmgW-2" value="&lt;br&gt;&lt;br&gt;&lt;br&gt;&lt;br&gt;" style="shape=note;whiteSpace=wrap;html=1;backgroundOutline=1;fontColor=#000000;darkOpacity=0.05;fillColor=#FFF9B2;strokeColor=none;fillStyle=solid;direction=west;gradientDirection=north;gradientColor=#FFF2A1;shadow=1;size=20;pointerEvents=1;" vertex="1" parent="1">
          <mxGeometry x="360" y="50" width="310" height="320" as="geometry" />
        </mxCell>
      </root>
    </mxGraphModel>
  </diagram>
</mxfile>
